# xmcd
#
# Track frame offsets:
#	150
#	19092
#	36540
#	56303
#	73030
#	86344
#	98702
#	111238
#	120624
#	135250
#	163778
#	176183
#	192553
#	204878
#	218309
#
# Disc length: 3170 seconds
#
# Revision: 3
# Processed by: cddbd v1.5.2PL0 Copyright (c) Steve Scherf et al.
# Submitted via: audiograbber 1.83.01
#
DISCID=ca0c600f
DTITLE=Kris Kristofferson - Broken Freedom Song: Live In San Francisco
DYEAR=2003
DGENRE=Folk/ Country
TTITLE0=Shipwrecked In The 80's
TTITLE1=Darby's Castle
TTITLE2=Broken Freedom Song
TTITLE3=Shandy
TTITLE4=What About Me
TTITLE5=Here Comes That Rainbow Again
TTITLE6=Nobody Wins
TTITLE7=The Race
TTITLE8=The Captive
TTITLE9=The Circle
TTITLE10=Sky King
TTITLE11=Sandinista
TTITLE12=Moment Of Forever
TTITLE13=Don't Let The Bastards Get You Down
TTITLE14=Road Warrior's Lament
EXTD=
EXTT0=
EXTT1=
EXTT2=
EXTT3=
EXTT4=
EXTT5=
EXTT6=
EXTT7=
EXTT8=
EXTT9=
EXTT10=
EXTT11=
EXTT12=
EXTT13=
EXTT14=
PLAYORDER=
